<svg xmlns="http://www.w3.org/2000/svg" width="152" height="119" viewBox="0 0 152 119">
<g transform="translate(0,119) scale(0.1,-0.1)" stroke="none">
<path d="M480 897 c0 -21 354 -119 418 -116 9 0 -42 13 -115 29 -112 24 -200
50 -285 85 -10 4 -18 5 -18 2z" fill="#14abdc"/>
<path d="M975 770 c28 -5 66 -8 85 -8 32 0 31 1 -10 9 -25 4 -63 7 -85 7 -39
-1 -39 -1 10 -8z" fill="#14abdc"/>
<path d="M1111 756 c2 -2 31 -6 64 -9 37 -3 51 -2 35 3 -25 8 -107 13 -99 6z" fill="#14abdc"/>
<path d="M1288 721 c65 -22 107 -60 139 -126 18 -37 23 -42 18 -20 -15 73
-118 165 -185 164 -17 0 -7 -6 28 -18z" fill="#14abdc"/>
<path d="M1452 520 c0 -14 2 -19 5 -12 2 6 2 18 0 25 -3 6 -5 1 -5 -13z" fill="#14abdc"/>
<path d="M1462 460 c0 -19 2 -27 5 -17 2 9 2 25 0 35 -3 9 -5 1 -5 -18z" fill="#14abdc"/>
<path d="M225 410 c22 -35 284 -191 319 -190 6 1 -34 24 -89 51 -55 28 -131
73 -168 100 -38 28 -66 45 -62 39z" fill="#14abdc"/>
<path d="M1443 377 c-26 -94 -122 -188 -264 -257 -46 -22 -77 -40 -71 -40 7 0
51 19 98 42 126 63 234 175 249 261 10 50 2 47 -12 -6z" fill="#14abdc"/>
<path d="M571 210 c9 -5 54 -23 100 -39 46 -16 109 -39 139 -50 30 -12 59 -21
65 -20 11 0 -75 35 -214 85 -97 35 -118 41 -90 24z" fill="#14abdc"/>
<path d="M920 82 c42 -23 90 -39 75 -24 -9 8 -27 16 -90 37 -11 3 -4 -3 15
-13z" fill="#14abdc"/>
<path d="M1055 70 c-13 -6 -15 -9 -5 -9 8 0 22 4 30 9 18 12 2 12 -25 0z" fill="#14abdc"/>
<path d="M413 818 c-132 -161 -183 -260 -183 -353 l0 -54 63 -45 c82 -59 224
-129 355 -176 200 -71 337 -123 346 -131 11 -9 123 29 206 71 176 89 274 227
255 363 -15 119 -80 203 -177 232 -29 8 -132 25 -228 36 -212 25 -389 61 -490
100 -41 16 -78 29 -81 29 -4 0 -33 -33 -66 -72z" fill="#0070ac"/>
<path d="M272 1115 c-68 -31 -98 -55 -144 -113 -57 -71 -81 -153 -76 -265 3
-80 7 -101 35 -157 27 -56 114 -160 133 -160 3 0 6 24 7 53 0 28 10 73 21 99
31 70 131 215 206 296 36 39 68 84 72 99 3 16 8 36 11 45 7 27 -24 82 -58 102
-18 11 -57 20 -93 22 -49 3 -71 -1 -114 -21z" fill="#ff304d"/>
</g></svg>